<svg xmlns="http://www.w3.org/2000/svg" xmlns:xlink="http://www.w3.org/1999/xlink" version="1.1" x="0px" y="0px" viewBox="0 0 100 125" enable-background="new 0 0 100 100" xml:space="preserve"><g><path d="M85.203,5.278C76.4,2.212,63.271,7.234,50.001,17.483C36.73,7.234,23.6,2.212,14.798,5.278   C1.335,9.963,2.55,31.906,16.535,56.552c1.79,3.157,3.761,6.349,5.968,9.562c8.173,11.906,17.871,22.069,27.498,29.501   c9.625-7.432,19.323-17.593,27.497-29.497c2.206-3.215,4.179-6.408,5.968-9.565C97.45,31.906,98.664,9.963,85.203,5.278z    M81.793,56.225c-1.7,2.998-3.574,6.032-5.67,9.086C68.357,76.62,59.145,86.273,50,93.334   c-9.145-7.061-18.358-16.716-26.123-28.026c-2.097-3.052-3.97-6.085-5.67-9.083C4.922,32.81,3.768,11.964,16.558,7.514   C24.919,4.601,37.394,9.372,50,19.108C62.607,9.372,75.08,4.601,83.443,7.514C96.23,11.964,95.078,32.81,81.793,56.225z"/></g><text x="0" y="115" fill="#000000" font-size="5px" font-weight="bold" font-family="'Helvetica Neue', Helvetica, Arial-Unicode, Arial, Sans-serif">Created by Gimhani Perera</text><text x="0" y="120" fill="#000000" font-size="5px" font-weight="bold" font-family="'Helvetica Neue', Helvetica, Arial-Unicode, Arial, Sans-serif">from the Noun Project</text></svg>